<?xml version="1.0" standalone="no"?>
<!DOCTYPE svg PUBLIC "-//W3C//DTD SVG 20010904//EN"
 "http://www.w3.org/TR/2001/REC-SVG-20010904/DTD/svg10.dtd">
<svg version="1.0" xmlns="http://www.w3.org/2000/svg"
 width="1080.000000pt" height="1044.000000pt" viewBox="0 0 1080.000000 1044.000000"
 preserveAspectRatio="xMidYMid meet">

<g transform="translate(0.000000,1044.000000) scale(0.100000,-0.100000)"
fill="#000000" stroke="none">
<path d="M0 5220 l0 -5220 5400 0 5400 0 0 5220 0 5220 -5400 0 -5400 0 0
-5220z m6784 2460 c39 -14 52 -51 39 -108 -30 -139 -158 -592 -175 -620 -11
-18 -30 -38 -41 -45 -17 -9 -200 -13 -764 -17 l-741 -5 -26 -24 c-14 -14 -26
-29 -26 -35 0 -6 -22 -94 -50 -195 -37 -138 -47 -188 -39 -202 9 -18 32 -19
565 -19 605 0 616 -1 630 -54 8 -33 5 -50 -39 -211 -19 -71 -54 -199 -76 -284
-44 -166 -60 -202 -104 -235 -28 -21 -38 -21 -614 -26 -666 -6 -599 5 -627
-103 -46 -178 -294 -1094 -301 -1109 -7 -17 69 -18 1507 -18 l1515 0 68 -117
c136 -235 134 -233 161 -233 34 0 84 -51 84 -85 0 -86 -91 -126 -152 -68 -30
28 -36 68 -18 103 8 16 -7 49 -84 182 l-94 163 -1923 5 c-1058 3 -1931 9
-1941 13 -9 5 -21 21 -28 37 -10 24 -1 66 70 331 190 706 195 728 178 746 -17
16 -37 18 -833 103 -159 17 -315 35 -345 39 -31 5 410 9 1034 10 599 0 1087 4
1084 7 -4 3 -178 34 -389 69 -427 70 -419 67 -419 147 0 21 20 114 45 206 52
191 55 225 23 246 -13 8 -81 33 -153 57 -71 23 -134 46 -140 51 -26 23 41 28
403 28 210 0 382 4 382 8 0 4 -57 28 -127 51 -71 24 -143 51 -161 59 -49 22
-65 61 -57 136 5 46 4 65 -7 73 -12 9 -179 39 -587 104 -74 11 -144 25 -155
29 -12 5 307 9 717 9 405 1 737 5 737 9 0 4 -119 34 -265 67 -293 64 -315 74
-315 137 0 49 126 508 148 537 9 13 33 32 52 42 33 18 85 19 1192 19 731 0
1166 -4 1182 -10z m-1765 -2854 c67 -164 121 -303 121 -308 0 -4 -31 -8 -68
-8 -66 0 -68 1 -79 30 l-11 30 -100 0 -100 0 -12 -30 c-12 -29 -14 -30 -81
-30 -38 0 -69 2 -69 4 0 8 238 594 251 617 9 18 13 19 19 8 5 -8 62 -149 129
-313z m587 283 l44 -11 -6 -57 c-4 -31 -8 -57 -9 -59 -1 -1 -22 2 -46 7 -90
21 -139 5 -139 -44 0 -29 23 -49 91 -79 105 -46 149 -100 149 -183 -1 -137
-139 -209 -306 -158 -72 22 -73 22 -63 88 4 33 9 61 12 63 2 2 19 -4 38 -13
42 -21 139 -29 168 -14 21 12 29 54 13 77 -4 6 -41 27 -82 46 -121 55 -168
129 -141 219 14 48 56 98 96 115 37 16 121 18 181 3z m674 -49 l0 -60 -75 0
-75 0 0 -245 0 -245 -60 0 -60 0 0 245 0 245 -81 0 -80 0 2 53 c1 28 4 55 6
60 2 4 98 7 214 7 l209 0 0 -60z m-831 -926 c95 -28 181 -140 181 -235 0 -68
-48 -153 -112 -199 -100 -73 -223 -59 -315 35 -69 71 -88 144 -63 237 17 59
95 136 160 158 68 24 83 24 149 4z m1140 0 c99 -29 181 -135 181 -234 0 -99
-82 -205 -181 -234 -65 -20 -73 -20 -135 -1 -100 30 -184 136 -184 235 0 97
83 205 180 235 59 18 76 18 139 -1z m647 -19 c38 -22 74 -79 74 -115 0 -6 -25
-10 -55 -10 -39 0 -55 4 -55 13 0 26 -37 48 -79 49 -45 0 -71 -15 -71 -42 0
-26 18 -37 95 -56 144 -35 180 -69 173 -161 -4 -49 -10 -61 -40 -89 -70 -63
-217 -68 -295 -9 -36 28 -63 72 -63 105 0 18 6 20 55 20 39 0 55 -4 55 -13 0
-19 40 -53 71 -60 30 -8 89 7 101 25 26 42 2 60 -128 97 -39 11 -82 30 -97 41
-59 47 -56 147 6 194 66 51 177 55 253 11z m-2627 -72 c16 -54 38 -127 49
-163 12 -39 23 -59 26 -50 3 8 25 80 49 160 l42 145 66 3 66 3 42 -218 c23
-120 45 -228 48 -240 5 -22 2 -23 -55 -23 -61 0 -61 0 -67 33 -3 17 -16 90
-28 161 l-23 128 -45 -158 -44 -159 -56 -3 -55 -3 -44 156 c-24 85 -45 153
-47 151 -4 -3 -53 -281 -53 -298 0 -5 -27 -8 -60 -8 -33 0 -60 4 -60 9 0 10
78 411 87 449 5 20 11 22 69 22 l63 0 30 -97z m1531 47 l0 -50 -70 0 -70 0 0
-190 0 -190 -55 0 -55 0 0 190 0 190 -65 0 -65 0 0 50 0 50 190 0 190 0 0 -50z"/>
<path d="M7614 3946 c-10 -26 4 -48 28 -44 17 2 23 10 23 28 0 18 -6 26 -23
28 -13 2 -25 -3 -28 -12z"/>
<path d="M4875 4820 c-6 -9 -45 -120 -45 -127 0 -1 23 -3 50 -3 28 0 50 4 50
8 0 12 -41 132 -45 132 -2 0 -7 -4 -10 -10z"/>
<path d="M5336 4030 c-78 -24 -119 -117 -81 -190 42 -82 153 -99 219 -33 67
67 50 170 -36 212 -48 23 -58 24 -102 11z"/>
<path d="M6465 4022 c-120 -56 -105 -217 23 -251 51 -14 112 7 142 49 82 115
-38 260 -165 202z"/>
</g>
</svg>
